<?xml version="1.0" encoding="UTF-8"?>
<svg id="Ebene_2" data-name="Ebene 2" xmlns="http://www.w3.org/2000/svg" viewBox="0 0 319.19 75.87">
  <defs>
    <style>
      .cls-1 {
        fill: #1d1d1b;
      }

      .cls-2 {
        fill: none;
      }

      .cls-3 {
        fill: #009cbc;
      }
    </style>
  </defs>
  <g id="Ebene_1-2" data-name="Ebene 1">
    <g>
      <line class="cls-2" x1="14.11" y1=".67" x2="14.57"/>
      <g>
        <line class="cls-2" x1="14.11" y1="67" x2="14.57" y2="66.33"/>
        <polygon class="cls-3" points="28.68 57.31 42.1 49.56 42.1 34.06 28.68 26.32 15.26 34.06 15.26 49.56 28.68 57.31"/>
        <g>
          <path class="cls-1" d="M28.68,23.54v-14.91L0,25.19v33.18s9.51,5.5,9.51,5.5c-.01.11-.02.23-.02.34,0,.83.34,1.59.89,2.14.54.55,1.31.89,2.14.89.83,0,1.59-.34,2.14-.89.55-.54.89-1.31.89-2.14,0-.83-.34-1.59-.89-2.14-.54-.55-1.31-.89-2.14-.89-.67,0-1.29.22-1.8.6l-8.31-4.8v-30.4s23.86-13.78,23.86-13.78v12.13l2.41-1.39Z"/>
          <path class="cls-1" d="M57.36,25.21l-9.51-5.5c.01-.11.02-.23.02-.34,0-.83-.34-1.59-.89-2.14-.54-.55-1.31-.89-2.14-.89-.83,0-1.59.34-2.14.89-.55.54-.89,1.31-.89,2.14,0,.83.34,1.59.89,2.14.54.55,1.31.89,2.14.89.67,0,1.29-.22,1.8-.59l8.31,4.8v30.4s-23.86,13.78-23.86,13.78v-12.13l-2.41,1.39v14.91l28.68-16.56V25.21Z"/>
        </g>
        <g>
          <path class="cls-1" d="M78.22,48.77l1.67-1.4c1.32,1.75,2.89,2.7,5.07,2.7,2.7,0,4.16-1.4,4.16-3.56,0-1.78-1-2.67-3.48-3.24l-1.54-.35c-3.43-.78-5.32-2.29-5.32-5.18,0-3.35,2.54-5.16,6.24-5.16,2.83,0,4.83,1.08,6.24,3.08l-1.7,1.24c-1.03-1.43-2.46-2.32-4.64-2.32-2.4,0-3.89,1.05-3.89,3.08,0,1.78,1.16,2.59,3.54,3.13l1.54.35c3.67.84,5.26,2.46,5.26,5.26,0,3.46-2.43,5.67-6.48,5.67-3.02,0-5.16-1.24-6.67-3.29Z"/>
          <path class="cls-1" d="M97.45,51.74v-18.84h11.5v2h-9.23v6.32h8.69v2h-8.69v6.53h9.23v2h-11.5Z"/>
          <path class="cls-1" d="M127.14,51.74l-1.89-5.56h-7.61l-1.89,5.56h-2.29l6.59-18.84h2.89l6.59,18.84h-2.38ZM121.5,35.01h-.13l-3.18,9.18h6.5l-3.19-9.18Z"/>
          <path class="cls-1" d="M137.08,51.74h-2.27v-18.84h7.5c3.29,0,5.26,1.92,5.26,5.34,0,2.75-1.32,4.62-3.78,5.18l4.32,8.31h-2.56l-4.08-8.1h-4.4v8.1ZM142.32,41.7c1.78,0,2.83-.97,2.83-2.7v-1.4c0-1.73-1.05-2.7-2.83-2.7h-5.24v6.8h5.24Z"/>
          <path class="cls-1" d="M153.04,42.43c0-6.29,2.83-9.85,7.58-9.85,3.13,0,5.29,1.51,6.48,4.13l-1.84,1.11c-.76-1.94-2.32-3.21-4.64-3.21-3.24,0-5.16,2.56-5.16,6.42v2.81c0,3.86,1.92,6.21,5.16,6.21,2.4,0,4.05-1.35,4.8-3.4l1.81,1.13c-1.19,2.64-3.48,4.29-6.61,4.29-4.75,0-7.58-3.35-7.58-9.64Z"/>
          <path class="cls-1" d="M184.71,43.21h-9.53v8.53h-2.27v-18.84h2.27v8.31h9.53v-8.31h2.27v18.84h-2.27v-8.53Z"/>
          <path class="cls-1" d="M201.31,48.77l1.67-1.4c1.32,1.75,2.89,2.7,5.07,2.7,2.7,0,4.16-1.4,4.16-3.56,0-1.78-1-2.67-3.48-3.24l-1.54-.35c-3.43-.78-5.32-2.29-5.32-5.18,0-3.35,2.54-5.16,6.24-5.16,2.83,0,4.83,1.08,6.24,3.08l-1.7,1.24c-1.03-1.43-2.46-2.32-4.64-2.32-2.4,0-3.89,1.05-3.89,3.08,0,1.78,1.16,2.59,3.54,3.13l1.54.35c3.67.84,5.26,2.46,5.26,5.26,0,3.46-2.43,5.67-6.48,5.67-3.02,0-5.16-1.24-6.67-3.29Z"/>
          <path class="cls-1" d="M220.54,51.74v-18.84h11.5v2h-9.23v6.32h8.69v2h-8.69v6.53h9.23v2h-11.5Z"/>
          <path class="cls-1" d="M240.7,51.74h-2.27v-18.84h7.5c3.29,0,5.26,1.92,5.26,5.34,0,2.75-1.32,4.62-3.78,5.18l4.32,8.31h-2.56l-4.08-8.1h-4.4v8.1ZM245.94,41.7c1.78,0,2.83-.97,2.83-2.7v-1.4c0-1.73-1.05-2.7-2.83-2.7h-5.24v6.8h5.24Z"/>
          <path class="cls-1" d="M261.49,51.74l-6.26-18.84h2.43l3.1,9.5,2.08,7.07h.13l2.13-7.07,3.13-9.5h2.35l-6.34,18.84h-2.75Z"/>
          <path class="cls-1" d="M274.91,51.74v-1.89h2.64v-15.06h-2.64v-1.89h7.56v1.89h-2.65v15.06h2.65v1.89h-7.56Z"/>
          <path class="cls-1" d="M287.82,42.43c0-6.29,2.83-9.85,7.58-9.85,3.13,0,5.29,1.51,6.48,4.13l-1.83,1.11c-.76-1.94-2.32-3.21-4.64-3.21-3.24,0-5.16,2.56-5.16,6.42v2.81c0,3.86,1.92,6.21,5.16,6.21,2.4,0,4.05-1.35,4.8-3.4l1.81,1.13c-1.19,2.64-3.48,4.29-6.61,4.29-4.75,0-7.58-3.35-7.58-9.64Z"/>
          <path class="cls-1" d="M307.69,51.74v-18.84h11.5v2h-9.23v6.32h8.69v2h-8.69v6.53h9.23v2h-11.5Z"/>
        </g>
        <g>
          <path class="cls-1" d="M82.61,64.83c1.66,0,2.66.84,2.66,2.5,0,.77,0,2.13-1.24,2.72,1.03.41,1.53,1.39,1.53,2.67,0,1.61-.5,3.14-2.74,3.14h-2.28c-.06,0-.11-.05-.11-.11v-10.82c0-.06.05-.11.11-.11h2.06ZM81.19,69.68h1.22c2.16,0,2.11-1.49,2.11-2.32,0-1.33-.63-1.78-2.16-1.78h-1.17v4.1ZM81.19,70.43v4.69h1.55c1.27,0,2.08-.3,2.08-2.44,0-1.94-1.42-2.25-2.41-2.25h-1.22Z"/>
          <path class="cls-1" d="M90.43,75.87s-.09-.05-.09-.11v-4.83l-2.11-5.97c-.03-.09.02-.12.09-.12h.61c.06,0,.09.05.12.14l1.66,5.1,1.72-5.1c.03-.09.08-.14.14-.14h.64c.08,0,.12.03.09.12l-2.22,5.97v4.83c0,.06-.03.11-.09.11h-.56Z"/>
          <path class="cls-1" d="M105.47,66c0,.39-.36.67-.69.67h-1.33v8.51c0,.34-.27.69-.67.69h-.5c-.38,0-.67-.34-.67-.69v-8.51h-1.34c-.33,0-.69-.28-.69-.67v-.5c0-.41.36-.67.69-.67h4.52c.33,0,.69.27.69.67v.5Z"/>
          <path class="cls-1" d="M108.57,75.87c-.38,0-.67-.34-.67-.69v-9.68c0-.31.3-.67.67-.67h.5c.41,0,.67.36.67.67v9.68c0,.34-.27.69-.67.69h-.5Z"/>
          <path class="cls-1" d="M115.36,64.83c.86,0,1.53.08,2,.34.81.45,1.22,1.44,1.22,2.47,0,.81-.11,1.44-.27,1.8-.12.23-.23.41-.38.55.61.44.84,1.24.84,2.38,0,1.69-.28,3.5-2.97,3.5h-2.11c-.38,0-.67-.34-.67-.69v-9.68c0-.41.38-.67.67-.67h1.66ZM114.87,69.16h.59c.72,0,1.28-.03,1.28-1.45,0-.97-.58-1.03-1.41-1.03h-.47v2.49ZM114.87,71.01v3.02h.88c.75,0,1.2-.27,1.2-1.71,0-1.11-.53-1.31-1.52-1.31h-.56Z"/>
          <path class="cls-1" d="M122.85,74.15c.48,0,.88.38.88.86s-.39.86-.88.86-.86-.39-.86-.86.39-.86.86-.86Z"/>
        </g>
      </g>
    </g>
  </g>
</svg>